<svg xmlns="http://www.w3.org/2000/svg" viewBox="0 0 374.27 200.11"><defs><style>.cls-1{fill:#00e1e5;}.cls-2{fill:#242a31;}</style></defs><title>stacked_logo</title><g id="Layer_2" data-name="Layer 2"><g id="Layer_1-2" data-name="Layer 1"><path class="cls-1" d="M233,25.05l-28.3,16.6h0l-.6-.6a4.35,4.35,0,0,0-.7-.6,2.65,2.65,0,0,0-.6-.5c-.2-.2-.5-.4-.7-.6a13.73,13.73,0,0,0-2-1.3.1.1,0,0,1-.1-.1c-.3-.2-.5-.3-.8-.5-.6-.3-1.3-.7-1.9-1-.3-.1-.5-.2-.8-.3a17.23,17.23,0,0,0-2.1-.7l-1.1-.3a22,22,0,0,0-5.8-.7,24.22,24.22,0,0,0-17.7,7.7l-29-17L182,1.35a9.93,9.93,0,0,1,10,0Z"/><path class="cls-1" d="M181.54,82.15v32.6l-33-19.1-7.2-4.1h0l-6-3.5V34.75l29,17a22.79,22.79,0,0,0-1,7V60h0A24.47,24.47,0,0,0,181.54,82.15Z"/><path class="cls-1" d="M238.84,82.55h0v5.6l-12.2,7-2.2,1.3h0l-31.9,18.4V82.45A24.3,24.3,0,0,0,211.74,60v-2.7a3.4,3.4,0,0,0-.1-1c0-.4-.1-.7-.1-1.1s-.1-.5-.1-.8-.1-.3-.1-.5-.1-.7-.2-1-.1-.3-.1-.5-.1-.5-.2-.7-.1-.4-.2-.6l28.3-16.6v48.1Z"/><path class="cls-2" d="M1.59,186.11a1.51,1.51,0,0,1-1.14-.45A1.53,1.53,0,0,1,0,184.52V143.14A1.55,1.55,0,0,1,.45,142a1.51,1.51,0,0,1,1.14-.45h16a24.89,24.89,0,0,1,10.63,2,14.51,14.51,0,0,1,6.53,5.86,19.52,19.52,0,0,1,2.39,9.51c0,1.87.06,3.51.06,4.91s0,3-.06,4.83a21.5,21.5,0,0,1-2.36,9.81,13.21,13.21,0,0,1-6.37,5.76,25.79,25.79,0,0,1-10.5,1.88Zm8.53-8.21h7.45a12.29,12.29,0,0,0,5.22-1,6.18,6.18,0,0,0,3-3,13.45,13.45,0,0,0,1.05-5.38c0-1.23.07-2.34.09-3.31s0-2,0-2.93-.05-2.06-.09-3.25c-.09-3.18-.91-5.53-2.46-7s-3.93-2.26-7.16-2.26H10.12Z"/><path class="cls-2" d="M45.77,147.91a1.47,1.47,0,0,1-1.08-.45,1.51,1.51,0,0,1-.44-1.14v-5.09a1.65,1.65,0,0,1,.44-1.18,1.43,1.43,0,0,1,1.08-.48h6.69a1.62,1.62,0,0,1,1.65,1.66v5.09a1.49,1.49,0,0,1-.47,1.14,1.67,1.67,0,0,1-1.18.45Zm.19,38.2a1.47,1.47,0,0,1-1.08-.45,1.56,1.56,0,0,1-.44-1.14V154.59a1.58,1.58,0,0,1,.44-1.14A1.47,1.47,0,0,1,46,153h6.37a1.55,1.55,0,0,1,1.15.45,1.58,1.58,0,0,1,.44,1.14v29.93a1.52,1.52,0,0,1-1.59,1.59Z"/><path class="cls-2" d="M77.41,200.11a21.28,21.28,0,0,1-7.83-1.24,15,15,0,0,1-4.93-3,11.38,11.38,0,0,1-2.58-3.47,8.65,8.65,0,0,1-.83-2.67,1.3,1.3,0,0,1,.45-1.15,1.67,1.67,0,0,1,1.14-.44h6.82a1.66,1.66,0,0,1,1,.28,2,2,0,0,1,.67,1,9.48,9.48,0,0,0,.89,1.62,4.38,4.38,0,0,0,1.75,1.43,7.19,7.19,0,0,0,3.16.58,9.39,9.39,0,0,0,3.69-.64A4.27,4.27,0,0,0,83,190.25a9.68,9.68,0,0,0,.74-4.14v-4.27a12.06,12.06,0,0,1-3.86,2.74,13.43,13.43,0,0,1-5.69,1.08,15.05,15.05,0,0,1-5.83-1,10.78,10.78,0,0,1-4.17-3,13.51,13.51,0,0,1-2.54-4.68,22.17,22.17,0,0,1-1-6.17c0-1.15,0-2.27,0-3.38a21.87,21.87,0,0,1,1-6,14.37,14.37,0,0,1,2.54-4.74,11.07,11.07,0,0,1,4.17-3.12,14.33,14.33,0,0,1,5.83-1.11,12.46,12.46,0,0,1,6,1.33A13.31,13.31,0,0,1,84.23,157v-2.42a1.56,1.56,0,0,1,.44-1.11,1.43,1.43,0,0,1,1.08-.48H92a1.53,1.53,0,0,1,1.12.48,1.55,1.55,0,0,1,.47,1.11l.07,30.63a16.39,16.39,0,0,1-1.85,8.08,12,12,0,0,1-5.44,5.06A20.34,20.34,0,0,1,77.41,200.11Zm-.31-21.9a6.16,6.16,0,0,0,3.72-1.05A6.47,6.47,0,0,0,83,174.49a9.47,9.47,0,0,0,.77-3.41c0-.46.06-1.13.06-2s0-1.54-.06-2a9.46,9.46,0,0,0-.77-3.4A6.22,6.22,0,0,0,80.82,161a6.36,6.36,0,0,0-3.72-1,6.21,6.21,0,0,0-3.82,1.05,5.88,5.88,0,0,0-2,2.77,13,13,0,0,0-.77,3.75c0,1,0,2,0,3a13.15,13.15,0,0,0,.77,3.82,5.88,5.88,0,0,0,2,2.77A6.21,6.21,0,0,0,77.1,178.21Z"/><path class="cls-2" d="M103,147.91a1.48,1.48,0,0,1-1.09-.45,1.54,1.54,0,0,1-.44-1.14v-5.09a1.69,1.69,0,0,1,.44-1.18,1.43,1.43,0,0,1,1.09-.48h6.68a1.64,1.64,0,0,1,1.66,1.66v5.09a1.47,1.47,0,0,1-.48,1.14,1.65,1.65,0,0,1-1.18.45Zm.19,38.2a1.48,1.48,0,0,1-1.09-.45,1.56,1.56,0,0,1-.44-1.14V154.59a1.58,1.58,0,0,1,.44-1.14,1.48,1.48,0,0,1,1.09-.45h6.36a1.52,1.52,0,0,1,1.59,1.59v29.93a1.52,1.52,0,0,1-.44,1.14,1.55,1.55,0,0,1-1.15.45Z"/><path class="cls-2" d="M135,186.11a15.9,15.9,0,0,1-6.75-1.31,8.83,8.83,0,0,1-4.23-4,14.67,14.67,0,0,1-1.44-6.88V160.52h-5a1.53,1.53,0,0,1-1.59-1.6v-4.33a1.52,1.52,0,0,1,1.59-1.59h5V142.5a1.5,1.5,0,0,1,.48-1.15,1.61,1.61,0,0,1,1.12-.44h6.23a1.58,1.58,0,0,1,1.15.44,1.55,1.55,0,0,1,.45,1.15V153h8a1.48,1.48,0,0,1,1.09.45,1.58,1.58,0,0,1,.44,1.14v4.33a1.58,1.58,0,0,1-.44,1.15,1.48,1.48,0,0,1-1.09.45h-8v12.6a7,7,0,0,0,.86,3.79,3.28,3.28,0,0,0,3,1.37h4.65a1.5,1.5,0,0,1,1.08.44,1.47,1.47,0,0,1,.44,1.09v4.71a1.52,1.52,0,0,1-.44,1.14,1.47,1.47,0,0,1-1.08.45Z"/><path class="cls-2" d="M157.37,186.74a13.57,13.57,0,0,1-6-1.3,11.11,11.11,0,0,1-4.27-3.53,8.69,8.69,0,0,1,2.07-12.1,22.47,22.47,0,0,1,9.64-3.56l8.34-1.21v-1.15a5.71,5.71,0,0,0-1.14-3.82c-.77-.89-2.1-1.34-4-1.34a6.15,6.15,0,0,0-3.38.83,5.64,5.64,0,0,0-2,2.17,1.62,1.62,0,0,1-1.46.82H149.1a1.37,1.37,0,0,1-1.08-.41,1.17,1.17,0,0,1-.32-1,5.33,5.33,0,0,1,.82-2.54,10.77,10.77,0,0,1,2.55-2.9,14.36,14.36,0,0,1,4.39-2.39,19.86,19.86,0,0,1,6.56-.95,22.11,22.11,0,0,1,6.88.95,11.51,11.51,0,0,1,4.58,2.68,10.87,10.87,0,0,1,2.55,4,14.11,14.11,0,0,1,.82,4.87v19.68a1.52,1.52,0,0,1-.44,1.14,1.55,1.55,0,0,1-1.15.45H169a1.47,1.47,0,0,1-1.08-.45,1.52,1.52,0,0,1-.44-1.14v-2.36a9.91,9.91,0,0,1-2.23,2.26,11.77,11.77,0,0,1-3.34,1.69A14.86,14.86,0,0,1,157.37,186.74Zm2.55-6.62a7.76,7.76,0,0,0,3.76-.89,6.28,6.28,0,0,0,2.61-2.73,10.18,10.18,0,0,0,1-4.65v-1.08l-5.92.95a12.31,12.31,0,0,0-5,1.72,3.37,3.37,0,0,0-1.59,2.8,3.18,3.18,0,0,0,.73,2.1,4.46,4.46,0,0,0,1.94,1.34A7.28,7.28,0,0,0,159.92,180.12Z"/><path class="cls-2" d="M186.15,186.11a1.52,1.52,0,0,1-1.59-1.59v-42a1.51,1.51,0,0,1,1.59-1.59h6.36a1.51,1.51,0,0,1,1.09.44,1.58,1.58,0,0,1,.44,1.15v42a1.56,1.56,0,0,1-.44,1.14,1.48,1.48,0,0,1-1.09.45Z"/><path class="cls-2" d="M234.53,186.74a23.22,23.22,0,0,1-10.15-2,14.76,14.76,0,0,1-6.46-5.86,19.89,19.89,0,0,1-2.55-9.39c0-1.74-.06-3.6-.06-5.6s0-3.9.06-5.73a19.56,19.56,0,0,1,2.58-9.33,15.21,15.21,0,0,1,6.52-5.89,23,23,0,0,1,10.06-2A26.34,26.34,0,0,1,242.3,142a18.16,18.16,0,0,1,6,3.12,14.68,14.68,0,0,1,3.94,4.77,14.34,14.34,0,0,1,1.53,6.12,1.25,1.25,0,0,1-.41.95,1.4,1.4,0,0,1-1,.38h-7.26A1.77,1.77,0,0,1,244,157a2.62,2.62,0,0,1-.7-1.27q-.94-3.77-3.18-5.16a10.26,10.26,0,0,0-5.54-1.4,8.74,8.74,0,0,0-6.24,2.16c-1.53,1.45-2.35,3.85-2.48,7.2s-.13,7,0,10.69c.13,3.36.95,5.76,2.48,7.2a8.74,8.74,0,0,0,6.24,2.16,10.22,10.22,0,0,0,5.57-1.43,7.9,7.9,0,0,0,3.15-5.12,2.46,2.46,0,0,1,.7-1.31,1.93,1.93,0,0,1,1.21-.35h7.26a1.44,1.44,0,0,1,1,.38,1.27,1.27,0,0,1,.41,1,14.29,14.29,0,0,1-1.53,6.11,14.68,14.68,0,0,1-3.94,4.77,18.16,18.16,0,0,1-6,3.12A26.34,26.34,0,0,1,234.53,186.74Z"/><path class="cls-2" d="M261.78,186.11a1.44,1.44,0,0,1-1.08-.45,1.53,1.53,0,0,1-.45-1.14V154.59a1.57,1.57,0,0,1,.45-1.11,1.4,1.4,0,0,1,1.08-.48H268a1.64,1.64,0,0,1,1.59,1.59v2.55a10.87,10.87,0,0,1,3.92-3A12.44,12.44,0,0,1,278.9,153h2.74a1.44,1.44,0,0,1,1.08.45,1.54,1.54,0,0,1,.45,1.14v5.48a1.55,1.55,0,0,1-.45,1.15,1.47,1.47,0,0,1-1.08.44H276a6,6,0,0,0-4.39,1.56,5.93,5.93,0,0,0-1.59,4.43v16.87a1.53,1.53,0,0,1-.45,1.14,1.55,1.55,0,0,1-1.15.45Z"/><path class="cls-2" d="M297.11,186.74a13.64,13.64,0,0,1-6.05-1.3,11.15,11.15,0,0,1-4.26-3.53,8.69,8.69,0,0,1,2.07-12.1,22.47,22.47,0,0,1,9.64-3.56l8.34-1.21v-1.15a5.71,5.71,0,0,0-1.14-3.82c-.77-.89-2.1-1.34-4-1.34a6.15,6.15,0,0,0-3.38.83,5.64,5.64,0,0,0-2,2.17,1.63,1.63,0,0,1-1.47.82h-6a1.4,1.4,0,0,1-1.09-.41,1.19,1.19,0,0,1-.31-1,5.33,5.33,0,0,1,.82-2.54,10.6,10.6,0,0,1,2.55-2.9,14.36,14.36,0,0,1,4.39-2.39,19.86,19.86,0,0,1,6.56-.95,22.11,22.11,0,0,1,6.88.95,11.51,11.51,0,0,1,4.58,2.68,11,11,0,0,1,2.55,4,14.11,14.11,0,0,1,.82,4.87v19.68a1.52,1.52,0,0,1-1.59,1.59h-6.24a1.47,1.47,0,0,1-1.08-.45,1.52,1.52,0,0,1-.44-1.14v-2.36a9.91,9.91,0,0,1-2.23,2.26,11.7,11.7,0,0,1-3.35,1.69A14.75,14.75,0,0,1,297.11,186.74Zm2.55-6.62a7.76,7.76,0,0,0,3.76-.89A6.28,6.28,0,0,0,306,176.5a10.18,10.18,0,0,0,1-4.65v-1.08l-5.92.95a12.31,12.31,0,0,0-5,1.72,3.37,3.37,0,0,0-1.59,2.8,3.18,3.18,0,0,0,.73,2.1,4.46,4.46,0,0,0,1.94,1.34A7.28,7.28,0,0,0,299.66,180.12Z"/><path class="cls-2" d="M329.26,186.11a1.51,1.51,0,0,1-1.14-.45,1.53,1.53,0,0,1-.45-1.14v-24h-5a1.54,1.54,0,0,1-1.59-1.6v-4.33A1.54,1.54,0,0,1,322.7,153h5v-2.29A13.08,13.08,0,0,1,329.2,144a8.94,8.94,0,0,1,4.45-3.82,18.85,18.85,0,0,1,7.2-1.21h4.65a1.58,1.58,0,0,1,1.14.44,1.55,1.55,0,0,1,.45,1.15v4.33a1.51,1.51,0,0,1-.45,1.14,1.54,1.54,0,0,1-1.14.45h-4.27a4,4,0,0,0-3.28,1.15A5.29,5.29,0,0,0,337,151v2h7.83a1.55,1.55,0,0,1,1.15.45,1.58,1.58,0,0,1,.44,1.14v4.33a1.58,1.58,0,0,1-.44,1.15,1.55,1.55,0,0,1-1.15.45H337v24a1.53,1.53,0,0,1-.45,1.14,1.46,1.46,0,0,1-1.08.45Z"/><path class="cls-2" d="M367.2,186.11a15.82,15.82,0,0,1-6.74-1.31,8.89,8.89,0,0,1-4.24-4,14.8,14.8,0,0,1-1.43-6.88V160.52h-5a1.54,1.54,0,0,1-1.59-1.6v-4.33a1.54,1.54,0,0,1,1.59-1.59h5V142.5a1.5,1.5,0,0,1,.48-1.15,1.61,1.61,0,0,1,1.11-.44h6.24a1.51,1.51,0,0,1,1.59,1.59V153h8a1.46,1.46,0,0,1,1.08.45,1.54,1.54,0,0,1,.45,1.14v4.33a1.55,1.55,0,0,1-.45,1.15,1.46,1.46,0,0,1-1.08.45h-8v12.6a7.14,7.14,0,0,0,.86,3.79,3.3,3.3,0,0,0,3,1.37h4.64a1.5,1.5,0,0,1,1.53,1.53v4.71a1.56,1.56,0,0,1-.44,1.14,1.48,1.48,0,0,1-1.09.45Z"/></g></g></svg>